<?xml version="1.0" encoding="UTF-8"?>
<svg xmlns="http://www.w3.org/2000/svg" xmlns:xlink="http://www.w3.org/1999/xlink" width="200pt" height="200pt" viewBox="0 0 200 200" version="1.1">
<g id="surface1">
<path style="fill:none;stroke-width:0.03;stroke-linecap:round;stroke-linejoin:miter;stroke:rgb(0%,0%,0%);stroke-opacity:1;stroke-miterlimit:10;" d="M 0.224941 0.699844 C 0.149785 0.596406 0.139004 0.45957 0.197051 0.345645 C 0.255098 0.231719 0.372148 0.16 0.5 0.16 C 0.627852 0.16 0.744902 0.231719 0.802949 0.345645 C 0.860996 0.45957 0.850215 0.596406 0.775059 0.699844 " transform="matrix(200,0,0,200,0,0)"/>
<path style="fill:none;stroke-width:0.03;stroke-linecap:round;stroke-linejoin:miter;stroke:rgb(0%,0%,0%);stroke-opacity:1;stroke-miterlimit:10;" d="M 0.297754 0.646953 C 0.24248 0.570898 0.23457 0.470273 0.277246 0.386504 C 0.319922 0.302734 0.405996 0.25 0.5 0.25 C 0.594004 0.25 0.680078 0.302734 0.722754 0.386504 C 0.76543 0.470273 0.75752 0.570898 0.702246 0.646953 " transform="matrix(200,0,0,200,0,0)"/>
<path style="fill:none;stroke-width:0.03;stroke-linecap:round;stroke-linejoin:miter;stroke:rgb(0%,0%,0%);stroke-opacity:1;stroke-miterlimit:10;" d="M 0.66 0.5 C 0.66 0.588359 0.588359 0.66 0.5 0.66 C 0.411641 0.66 0.34 0.588359 0.34 0.5 C 0.34 0.411641 0.411641 0.34 0.5 0.34 C 0.588359 0.34 0.66 0.411641 0.66 0.5 " transform="matrix(200,0,0,200,0,0)"/>
<path style="fill:none;stroke-width:0.03;stroke-linecap:round;stroke-linejoin:miter;stroke:rgb(0%,0%,0%);stroke-opacity:1;stroke-miterlimit:10;" d="M 0.565 0.531992 L 0.435 0.531992 " transform="matrix(200,0,0,200,0,0)"/>
<path style="fill:none;stroke-width:0.03;stroke-linecap:round;stroke-linejoin:miter;stroke:rgb(0%,0%,0%);stroke-opacity:1;stroke-miterlimit:10;" d="M 0.565508 0.533008 L 0.434492 0.533008 " transform="matrix(200,0,0,200,0,0)"/>
<path style="fill:none;stroke-width:0.03;stroke-linecap:round;stroke-linejoin:miter;stroke:rgb(0%,0%,0%);stroke-opacity:1;stroke-miterlimit:10;" d="M 0.565996 0.534004 L 0.434004 0.534004 " transform="matrix(200,0,0,200,0,0)"/>
<path style="fill:none;stroke-width:0.03;stroke-linecap:round;stroke-linejoin:miter;stroke:rgb(0%,0%,0%);stroke-opacity:1;stroke-miterlimit:10;" d="M 0.566504 0.535 L 0.433496 0.535 " transform="matrix(200,0,0,200,0,0)"/>
<path style="fill:none;stroke-width:0.03;stroke-linecap:round;stroke-linejoin:miter;stroke:rgb(0%,0%,0%);stroke-opacity:1;stroke-miterlimit:10;" d="M 0.566992 0.535996 L 0.433008 0.535996 " transform="matrix(200,0,0,200,0,0)"/>
<path style="fill:none;stroke-width:0.03;stroke-linecap:round;stroke-linejoin:miter;stroke:rgb(0%,0%,0%);stroke-opacity:1;stroke-miterlimit:10;" d="M 0.5675 0.536992 L 0.4325 0.536992 " transform="matrix(200,0,0,200,0,0)"/>
<path style="fill:none;stroke-width:0.03;stroke-linecap:round;stroke-linejoin:miter;stroke:rgb(0%,0%,0%);stroke-opacity:1;stroke-miterlimit:10;" d="M 0.568008 0.538008 L 0.431992 0.538008 " transform="matrix(200,0,0,200,0,0)"/>
<path style="fill:none;stroke-width:0.03;stroke-linecap:round;stroke-linejoin:miter;stroke:rgb(0%,0%,0%);stroke-opacity:1;stroke-miterlimit:10;" d="M 0.568496 0.539004 L 0.431504 0.539004 " transform="matrix(200,0,0,200,0,0)"/>
<path style="fill:none;stroke-width:0.03;stroke-linecap:round;stroke-linejoin:miter;stroke:rgb(0%,0%,0%);stroke-opacity:1;stroke-miterlimit:10;" d="M 0.569004 0.54 L 0.430996 0.54 " transform="matrix(200,0,0,200,0,0)"/>
<path style="fill:none;stroke-width:0.03;stroke-linecap:round;stroke-linejoin:miter;stroke:rgb(0%,0%,0%);stroke-opacity:1;stroke-miterlimit:10;" d="M 0.569492 0.540996 L 0.430508 0.540996 " transform="matrix(200,0,0,200,0,0)"/>
<path style="fill:none;stroke-width:0.03;stroke-linecap:round;stroke-linejoin:miter;stroke:rgb(0%,0%,0%);stroke-opacity:1;stroke-miterlimit:10;" d="M 0.57 0.541992 L 0.43 0.541992 " transform="matrix(200,0,0,200,0,0)"/>
<path style="fill:none;stroke-width:0.03;stroke-linecap:round;stroke-linejoin:miter;stroke:rgb(0%,0%,0%);stroke-opacity:1;stroke-miterlimit:10;" d="M 0.570508 0.543008 L 0.429492 0.543008 " transform="matrix(200,0,0,200,0,0)"/>
<path style="fill:none;stroke-width:0.03;stroke-linecap:round;stroke-linejoin:miter;stroke:rgb(0%,0%,0%);stroke-opacity:1;stroke-miterlimit:10;" d="M 0.570996 0.544004 L 0.429004 0.544004 " transform="matrix(200,0,0,200,0,0)"/>
<path style="fill:none;stroke-width:0.03;stroke-linecap:round;stroke-linejoin:miter;stroke:rgb(0%,0%,0%);stroke-opacity:1;stroke-miterlimit:10;" d="M 0.571504 0.545 L 0.428496 0.545 " transform="matrix(200,0,0,200,0,0)"/>
<path style="fill:none;stroke-width:0.03;stroke-linecap:round;stroke-linejoin:miter;stroke:rgb(0%,0%,0%);stroke-opacity:1;stroke-miterlimit:10;" d="M 0.571992 0.545996 L 0.428008 0.545996 " transform="matrix(200,0,0,200,0,0)"/>
<path style="fill:none;stroke-width:0.03;stroke-linecap:round;stroke-linejoin:miter;stroke:rgb(0%,0%,0%);stroke-opacity:1;stroke-miterlimit:10;" d="M 0.5725 0.546992 L 0.4275 0.546992 " transform="matrix(200,0,0,200,0,0)"/>
<path style="fill:none;stroke-width:0.03;stroke-linecap:round;stroke-linejoin:miter;stroke:rgb(0%,0%,0%);stroke-opacity:1;stroke-miterlimit:10;" d="M 0.573008 0.548008 L 0.426992 0.548008 " transform="matrix(200,0,0,200,0,0)"/>
<path style="fill:none;stroke-width:0.03;stroke-linecap:round;stroke-linejoin:miter;stroke:rgb(0%,0%,0%);stroke-opacity:1;stroke-miterlimit:10;" d="M 0.573496 0.549004 L 0.426504 0.549004 " transform="matrix(200,0,0,200,0,0)"/>
<path style="fill:none;stroke-width:0.03;stroke-linecap:round;stroke-linejoin:miter;stroke:rgb(0%,0%,0%);stroke-opacity:1;stroke-miterlimit:10;" d="M 0.574004 0.55 L 0.425996 0.55 " transform="matrix(200,0,0,200,0,0)"/>
<path style="fill:none;stroke-width:0.03;stroke-linecap:round;stroke-linejoin:miter;stroke:rgb(0%,0%,0%);stroke-opacity:1;stroke-miterlimit:10;" d="M 0.574492 0.550996 L 0.425508 0.550996 " transform="matrix(200,0,0,200,0,0)"/>
<path style="fill:none;stroke-width:0.03;stroke-linecap:round;stroke-linejoin:miter;stroke:rgb(0%,0%,0%);stroke-opacity:1;stroke-miterlimit:10;" d="M 0.575 0.551992 L 0.425 0.551992 " transform="matrix(200,0,0,200,0,0)"/>
<path style="fill:none;stroke-width:0.03;stroke-linecap:round;stroke-linejoin:miter;stroke:rgb(0%,0%,0%);stroke-opacity:1;stroke-miterlimit:10;" d="M 0.575508 0.553008 L 0.424492 0.553008 " transform="matrix(200,0,0,200,0,0)"/>
<path style="fill:none;stroke-width:0.03;stroke-linecap:round;stroke-linejoin:miter;stroke:rgb(0%,0%,0%);stroke-opacity:1;stroke-miterlimit:10;" d="M 0.575996 0.554004 L 0.424004 0.554004 " transform="matrix(200,0,0,200,0,0)"/>
<path style="fill:none;stroke-width:0.03;stroke-linecap:round;stroke-linejoin:miter;stroke:rgb(0%,0%,0%);stroke-opacity:1;stroke-miterlimit:10;" d="M 0.576504 0.555 L 0.423496 0.555 " transform="matrix(200,0,0,200,0,0)"/>
<path style="fill:none;stroke-width:0.03;stroke-linecap:round;stroke-linejoin:miter;stroke:rgb(0%,0%,0%);stroke-opacity:1;stroke-miterlimit:10;" d="M 0.576992 0.555996 L 0.423008 0.555996 " transform="matrix(200,0,0,200,0,0)"/>
<path style="fill:none;stroke-width:0.03;stroke-linecap:round;stroke-linejoin:miter;stroke:rgb(0%,0%,0%);stroke-opacity:1;stroke-miterlimit:10;" d="M 0.5775 0.556992 L 0.4225 0.556992 " transform="matrix(200,0,0,200,0,0)"/>
<path style="fill:none;stroke-width:0.03;stroke-linecap:round;stroke-linejoin:miter;stroke:rgb(0%,0%,0%);stroke-opacity:1;stroke-miterlimit:10;" d="M 0.578008 0.558008 L 0.421992 0.558008 " transform="matrix(200,0,0,200,0,0)"/>
<path style="fill:none;stroke-width:0.03;stroke-linecap:round;stroke-linejoin:miter;stroke:rgb(0%,0%,0%);stroke-opacity:1;stroke-miterlimit:10;" d="M 0.578496 0.559004 L 0.421504 0.559004 " transform="matrix(200,0,0,200,0,0)"/>
<path style="fill:none;stroke-width:0.03;stroke-linecap:round;stroke-linejoin:miter;stroke:rgb(0%,0%,0%);stroke-opacity:1;stroke-miterlimit:10;" d="M 0.579004 0.56 L 0.420996 0.56 " transform="matrix(200,0,0,200,0,0)"/>
<path style="fill:none;stroke-width:0.03;stroke-linecap:round;stroke-linejoin:miter;stroke:rgb(0%,0%,0%);stroke-opacity:1;stroke-miterlimit:10;" d="M 0.579492 0.560996 L 0.420508 0.560996 " transform="matrix(200,0,0,200,0,0)"/>
<path style="fill:none;stroke-width:0.03;stroke-linecap:round;stroke-linejoin:miter;stroke:rgb(0%,0%,0%);stroke-opacity:1;stroke-miterlimit:10;" d="M 0.58 0.561992 L 0.42 0.561992 " transform="matrix(200,0,0,200,0,0)"/>
<path style="fill:none;stroke-width:0.03;stroke-linecap:round;stroke-linejoin:miter;stroke:rgb(0%,0%,0%);stroke-opacity:1;stroke-miterlimit:10;" d="M 0.580508 0.563008 L 0.419492 0.563008 " transform="matrix(200,0,0,200,0,0)"/>
<path style="fill:none;stroke-width:0.03;stroke-linecap:round;stroke-linejoin:miter;stroke:rgb(0%,0%,0%);stroke-opacity:1;stroke-miterlimit:10;" d="M 0.580996 0.564004 L 0.419004 0.564004 " transform="matrix(200,0,0,200,0,0)"/>
<path style="fill:none;stroke-width:0.03;stroke-linecap:round;stroke-linejoin:miter;stroke:rgb(0%,0%,0%);stroke-opacity:1;stroke-miterlimit:10;" d="M 0.581504 0.565 L 0.418496 0.565 " transform="matrix(200,0,0,200,0,0)"/>
<path style="fill:none;stroke-width:0.03;stroke-linecap:round;stroke-linejoin:miter;stroke:rgb(0%,0%,0%);stroke-opacity:1;stroke-miterlimit:10;" d="M 0.581992 0.565996 L 0.418008 0.565996 " transform="matrix(200,0,0,200,0,0)"/>
<path style="fill:none;stroke-width:0.03;stroke-linecap:round;stroke-linejoin:miter;stroke:rgb(0%,0%,0%);stroke-opacity:1;stroke-miterlimit:10;" d="M 0.5825 0.566992 L 0.4175 0.566992 " transform="matrix(200,0,0,200,0,0)"/>
<path style="fill:none;stroke-width:0.03;stroke-linecap:round;stroke-linejoin:miter;stroke:rgb(0%,0%,0%);stroke-opacity:1;stroke-miterlimit:10;" d="M 0.583008 0.568008 L 0.416992 0.568008 " transform="matrix(200,0,0,200,0,0)"/>
<path style="fill:none;stroke-width:0.03;stroke-linecap:round;stroke-linejoin:miter;stroke:rgb(0%,0%,0%);stroke-opacity:1;stroke-miterlimit:10;" d="M 0.583496 0.569004 L 0.416504 0.569004 " transform="matrix(200,0,0,200,0,0)"/>
<path style="fill:none;stroke-width:0.03;stroke-linecap:round;stroke-linejoin:miter;stroke:rgb(0%,0%,0%);stroke-opacity:1;stroke-miterlimit:10;" d="M 0.584004 0.57 L 0.415996 0.57 " transform="matrix(200,0,0,200,0,0)"/>
<path style="fill:none;stroke-width:0.03;stroke-linecap:round;stroke-linejoin:miter;stroke:rgb(0%,0%,0%);stroke-opacity:1;stroke-miterlimit:10;" d="M 0.584492 0.570996 L 0.415508 0.570996 " transform="matrix(200,0,0,200,0,0)"/>
<path style="fill:none;stroke-width:0.03;stroke-linecap:round;stroke-linejoin:miter;stroke:rgb(0%,0%,0%);stroke-opacity:1;stroke-miterlimit:10;" d="M 0.585 0.571992 L 0.415 0.571992 " transform="matrix(200,0,0,200,0,0)"/>
<path style="fill:none;stroke-width:0.03;stroke-linecap:round;stroke-linejoin:miter;stroke:rgb(0%,0%,0%);stroke-opacity:1;stroke-miterlimit:10;" d="M 0.585508 0.573008 L 0.414492 0.573008 " transform="matrix(200,0,0,200,0,0)"/>
<path style="fill:none;stroke-width:0.03;stroke-linecap:round;stroke-linejoin:miter;stroke:rgb(0%,0%,0%);stroke-opacity:1;stroke-miterlimit:10;" d="M 0.585996 0.574004 L 0.414004 0.574004 " transform="matrix(200,0,0,200,0,0)"/>
<path style="fill:none;stroke-width:0.03;stroke-linecap:round;stroke-linejoin:miter;stroke:rgb(0%,0%,0%);stroke-opacity:1;stroke-miterlimit:10;" d="M 0.586504 0.575 L 0.413496 0.575 " transform="matrix(200,0,0,200,0,0)"/>
<path style="fill:none;stroke-width:0.03;stroke-linecap:round;stroke-linejoin:miter;stroke:rgb(0%,0%,0%);stroke-opacity:1;stroke-miterlimit:10;" d="M 0.586992 0.575996 L 0.413008 0.575996 " transform="matrix(200,0,0,200,0,0)"/>
<path style="fill:none;stroke-width:0.03;stroke-linecap:round;stroke-linejoin:miter;stroke:rgb(0%,0%,0%);stroke-opacity:1;stroke-miterlimit:10;" d="M 0.5875 0.576992 L 0.4125 0.576992 " transform="matrix(200,0,0,200,0,0)"/>
<path style="fill:none;stroke-width:0.03;stroke-linecap:round;stroke-linejoin:miter;stroke:rgb(0%,0%,0%);stroke-opacity:1;stroke-miterlimit:10;" d="M 0.588008 0.578008 L 0.411992 0.578008 " transform="matrix(200,0,0,200,0,0)"/>
<path style="fill:none;stroke-width:0.03;stroke-linecap:round;stroke-linejoin:miter;stroke:rgb(0%,0%,0%);stroke-opacity:1;stroke-miterlimit:10;" d="M 0.588496 0.579004 L 0.411504 0.579004 " transform="matrix(200,0,0,200,0,0)"/>
<path style="fill:none;stroke-width:0.03;stroke-linecap:round;stroke-linejoin:miter;stroke:rgb(0%,0%,0%);stroke-opacity:1;stroke-miterlimit:10;" d="M 0.589004 0.58 L 0.410996 0.58 " transform="matrix(200,0,0,200,0,0)"/>
<path style="fill:none;stroke-width:0.03;stroke-linecap:round;stroke-linejoin:miter;stroke:rgb(0%,0%,0%);stroke-opacity:1;stroke-miterlimit:10;" d="M 0.589492 0.580996 L 0.410508 0.580996 " transform="matrix(200,0,0,200,0,0)"/>
<path style="fill:none;stroke-width:0.03;stroke-linecap:round;stroke-linejoin:miter;stroke:rgb(0%,0%,0%);stroke-opacity:1;stroke-miterlimit:10;" d="M 0.59 0.581992 L 0.41 0.581992 " transform="matrix(200,0,0,200,0,0)"/>
<path style="fill:none;stroke-width:0.03;stroke-linecap:round;stroke-linejoin:miter;stroke:rgb(0%,0%,0%);stroke-opacity:1;stroke-miterlimit:10;" d="M 0.590508 0.583008 L 0.409492 0.583008 " transform="matrix(200,0,0,200,0,0)"/>
<path style="fill:none;stroke-width:0.03;stroke-linecap:round;stroke-linejoin:miter;stroke:rgb(0%,0%,0%);stroke-opacity:1;stroke-miterlimit:10;" d="M 0.590996 0.584004 L 0.409004 0.584004 " transform="matrix(200,0,0,200,0,0)"/>
<path style="fill:none;stroke-width:0.03;stroke-linecap:round;stroke-linejoin:miter;stroke:rgb(0%,0%,0%);stroke-opacity:1;stroke-miterlimit:10;" d="M 0.591504 0.585 L 0.408496 0.585 " transform="matrix(200,0,0,200,0,0)"/>
<path style="fill:none;stroke-width:0.03;stroke-linecap:round;stroke-linejoin:miter;stroke:rgb(0%,0%,0%);stroke-opacity:1;stroke-miterlimit:10;" d="M 0.591992 0.585996 L 0.408008 0.585996 " transform="matrix(200,0,0,200,0,0)"/>
<path style="fill:none;stroke-width:0.03;stroke-linecap:round;stroke-linejoin:miter;stroke:rgb(0%,0%,0%);stroke-opacity:1;stroke-miterlimit:10;" d="M 0.5925 0.586992 L 0.4075 0.586992 " transform="matrix(200,0,0,200,0,0)"/>
<path style="fill:none;stroke-width:0.03;stroke-linecap:round;stroke-linejoin:miter;stroke:rgb(0%,0%,0%);stroke-opacity:1;stroke-miterlimit:10;" d="M 0.593008 0.588008 L 0.406992 0.588008 " transform="matrix(200,0,0,200,0,0)"/>
<path style="fill:none;stroke-width:0.03;stroke-linecap:round;stroke-linejoin:miter;stroke:rgb(0%,0%,0%);stroke-opacity:1;stroke-miterlimit:10;" d="M 0.593496 0.589004 L 0.406504 0.589004 " transform="matrix(200,0,0,200,0,0)"/>
<path style="fill:none;stroke-width:0.03;stroke-linecap:round;stroke-linejoin:miter;stroke:rgb(0%,0%,0%);stroke-opacity:1;stroke-miterlimit:10;" d="M 0.594004 0.59 L 0.405996 0.59 " transform="matrix(200,0,0,200,0,0)"/>
<path style="fill:none;stroke-width:0.03;stroke-linecap:round;stroke-linejoin:miter;stroke:rgb(0%,0%,0%);stroke-opacity:1;stroke-miterlimit:10;" d="M 0.594492 0.590996 L 0.405508 0.590996 " transform="matrix(200,0,0,200,0,0)"/>
<path style="fill:none;stroke-width:0.03;stroke-linecap:round;stroke-linejoin:miter;stroke:rgb(0%,0%,0%);stroke-opacity:1;stroke-miterlimit:10;" d="M 0.595 0.591992 L 0.405 0.591992 " transform="matrix(200,0,0,200,0,0)"/>
<path style="fill:none;stroke-width:0.03;stroke-linecap:round;stroke-linejoin:miter;stroke:rgb(0%,0%,0%);stroke-opacity:1;stroke-miterlimit:10;" d="M 0.595508 0.593008 L 0.404492 0.593008 " transform="matrix(200,0,0,200,0,0)"/>
<path style="fill:none;stroke-width:0.03;stroke-linecap:round;stroke-linejoin:miter;stroke:rgb(0%,0%,0%);stroke-opacity:1;stroke-miterlimit:10;" d="M 0.595996 0.594004 L 0.404004 0.594004 " transform="matrix(200,0,0,200,0,0)"/>
<path style="fill:none;stroke-width:0.03;stroke-linecap:round;stroke-linejoin:miter;stroke:rgb(0%,0%,0%);stroke-opacity:1;stroke-miterlimit:10;" d="M 0.596504 0.595 L 0.403496 0.595 " transform="matrix(200,0,0,200,0,0)"/>
<path style="fill:none;stroke-width:0.03;stroke-linecap:round;stroke-linejoin:miter;stroke:rgb(0%,0%,0%);stroke-opacity:1;stroke-miterlimit:10;" d="M 0.596992 0.595996 L 0.403008 0.595996 " transform="matrix(200,0,0,200,0,0)"/>
<path style="fill:none;stroke-width:0.03;stroke-linecap:round;stroke-linejoin:miter;stroke:rgb(0%,0%,0%);stroke-opacity:1;stroke-miterlimit:10;" d="M 0.5975 0.596992 L 0.4025 0.596992 " transform="matrix(200,0,0,200,0,0)"/>
<path style="fill:none;stroke-width:0.03;stroke-linecap:round;stroke-linejoin:miter;stroke:rgb(0%,0%,0%);stroke-opacity:1;stroke-miterlimit:10;" d="M 0.598008 0.598008 L 0.401992 0.598008 " transform="matrix(200,0,0,200,0,0)"/>
<path style="fill:none;stroke-width:0.03;stroke-linecap:round;stroke-linejoin:miter;stroke:rgb(0%,0%,0%);stroke-opacity:1;stroke-miterlimit:10;" d="M 0.598496 0.599004 L 0.401504 0.599004 " transform="matrix(200,0,0,200,0,0)"/>
<path style="fill:none;stroke-width:0.03;stroke-linecap:round;stroke-linejoin:miter;stroke:rgb(0%,0%,0%);stroke-opacity:1;stroke-miterlimit:10;" d="M 0.599004 0.6 L 0.400996 0.6 " transform="matrix(200,0,0,200,0,0)"/>
<path style="fill:none;stroke-width:0.03;stroke-linecap:round;stroke-linejoin:miter;stroke:rgb(0%,0%,0%);stroke-opacity:1;stroke-miterlimit:10;" d="M 0.599492 0.600996 L 0.400508 0.600996 " transform="matrix(200,0,0,200,0,0)"/>
<path style="fill:none;stroke-width:0.03;stroke-linecap:round;stroke-linejoin:miter;stroke:rgb(0%,0%,0%);stroke-opacity:1;stroke-miterlimit:10;" d="M 0.6 0.601992 L 0.4 0.601992 " transform="matrix(200,0,0,200,0,0)"/>
<path style="fill:none;stroke-width:0.03;stroke-linecap:round;stroke-linejoin:miter;stroke:rgb(0%,0%,0%);stroke-opacity:1;stroke-miterlimit:10;" d="M 0.600508 0.603008 L 0.399492 0.603008 " transform="matrix(200,0,0,200,0,0)"/>
<path style="fill:none;stroke-width:0.03;stroke-linecap:round;stroke-linejoin:miter;stroke:rgb(0%,0%,0%);stroke-opacity:1;stroke-miterlimit:10;" d="M 0.600996 0.604004 L 0.399004 0.604004 " transform="matrix(200,0,0,200,0,0)"/>
<path style="fill:none;stroke-width:0.03;stroke-linecap:round;stroke-linejoin:miter;stroke:rgb(0%,0%,0%);stroke-opacity:1;stroke-miterlimit:10;" d="M 0.601504 0.605 L 0.398496 0.605 " transform="matrix(200,0,0,200,0,0)"/>
<path style="fill:none;stroke-width:0.03;stroke-linecap:round;stroke-linejoin:miter;stroke:rgb(0%,0%,0%);stroke-opacity:1;stroke-miterlimit:10;" d="M 0.601992 0.605996 L 0.398008 0.605996 " transform="matrix(200,0,0,200,0,0)"/>
<path style="fill:none;stroke-width:0.03;stroke-linecap:round;stroke-linejoin:miter;stroke:rgb(0%,0%,0%);stroke-opacity:1;stroke-miterlimit:10;" d="M 0.6025 0.606992 L 0.3975 0.606992 " transform="matrix(200,0,0,200,0,0)"/>
<path style="fill:none;stroke-width:0.03;stroke-linecap:round;stroke-linejoin:miter;stroke:rgb(0%,0%,0%);stroke-opacity:1;stroke-miterlimit:10;" d="M 0.603008 0.608008 L 0.396992 0.608008 " transform="matrix(200,0,0,200,0,0)"/>
<path style="fill:none;stroke-width:0.03;stroke-linecap:round;stroke-linejoin:miter;stroke:rgb(0%,0%,0%);stroke-opacity:1;stroke-miterlimit:10;" d="M 0.603496 0.609004 L 0.396504 0.609004 " transform="matrix(200,0,0,200,0,0)"/>
<path style="fill:none;stroke-width:0.03;stroke-linecap:round;stroke-linejoin:miter;stroke:rgb(0%,0%,0%);stroke-opacity:1;stroke-miterlimit:10;" d="M 0.604004 0.61 L 0.395996 0.61 " transform="matrix(200,0,0,200,0,0)"/>
<path style="fill:none;stroke-width:0.03;stroke-linecap:round;stroke-linejoin:miter;stroke:rgb(0%,0%,0%);stroke-opacity:1;stroke-miterlimit:10;" d="M 0.604492 0.610996 L 0.395508 0.610996 " transform="matrix(200,0,0,200,0,0)"/>
<path style="fill:none;stroke-width:0.03;stroke-linecap:round;stroke-linejoin:miter;stroke:rgb(0%,0%,0%);stroke-opacity:1;stroke-miterlimit:10;" d="M 0.605 0.611992 L 0.395 0.611992 " transform="matrix(200,0,0,200,0,0)"/>
<path style="fill:none;stroke-width:0.03;stroke-linecap:round;stroke-linejoin:miter;stroke:rgb(0%,0%,0%);stroke-opacity:1;stroke-miterlimit:10;" d="M 0.605508 0.613008 L 0.394492 0.613008 " transform="matrix(200,0,0,200,0,0)"/>
<path style="fill:none;stroke-width:0.03;stroke-linecap:round;stroke-linejoin:miter;stroke:rgb(0%,0%,0%);stroke-opacity:1;stroke-miterlimit:10;" d="M 0.605996 0.614004 L 0.394004 0.614004 " transform="matrix(200,0,0,200,0,0)"/>
<path style="fill:none;stroke-width:0.03;stroke-linecap:round;stroke-linejoin:miter;stroke:rgb(0%,0%,0%);stroke-opacity:1;stroke-miterlimit:10;" d="M 0.606504 0.615 L 0.393496 0.615 " transform="matrix(200,0,0,200,0,0)"/>
<path style="fill:none;stroke-width:0.03;stroke-linecap:round;stroke-linejoin:miter;stroke:rgb(0%,0%,0%);stroke-opacity:1;stroke-miterlimit:10;" d="M 0.606992 0.615996 L 0.393008 0.615996 " transform="matrix(200,0,0,200,0,0)"/>
<path style="fill:none;stroke-width:0.03;stroke-linecap:round;stroke-linejoin:miter;stroke:rgb(0%,0%,0%);stroke-opacity:1;stroke-miterlimit:10;" d="M 0.6075 0.616992 L 0.3925 0.616992 " transform="matrix(200,0,0,200,0,0)"/>
<path style="fill:none;stroke-width:0.03;stroke-linecap:round;stroke-linejoin:miter;stroke:rgb(0%,0%,0%);stroke-opacity:1;stroke-miterlimit:10;" d="M 0.608008 0.618008 L 0.391992 0.618008 " transform="matrix(200,0,0,200,0,0)"/>
<path style="fill:none;stroke-width:0.03;stroke-linecap:round;stroke-linejoin:miter;stroke:rgb(0%,0%,0%);stroke-opacity:1;stroke-miterlimit:10;" d="M 0.608496 0.619004 L 0.391504 0.619004 " transform="matrix(200,0,0,200,0,0)"/>
<path style="fill:none;stroke-width:0.03;stroke-linecap:round;stroke-linejoin:miter;stroke:rgb(0%,0%,0%);stroke-opacity:1;stroke-miterlimit:10;" d="M 0.609004 0.62 L 0.390996 0.62 " transform="matrix(200,0,0,200,0,0)"/>
<path style="fill:none;stroke-width:0.03;stroke-linecap:round;stroke-linejoin:miter;stroke:rgb(0%,0%,0%);stroke-opacity:1;stroke-miterlimit:10;" d="M 0.609492 0.620996 L 0.390508 0.620996 " transform="matrix(200,0,0,200,0,0)"/>
<path style="fill:none;stroke-width:0.03;stroke-linecap:round;stroke-linejoin:miter;stroke:rgb(0%,0%,0%);stroke-opacity:1;stroke-miterlimit:10;" d="M 0.61 0.621992 L 0.39 0.621992 " transform="matrix(200,0,0,200,0,0)"/>
<path style="fill:none;stroke-width:0.03;stroke-linecap:round;stroke-linejoin:miter;stroke:rgb(0%,0%,0%);stroke-opacity:1;stroke-miterlimit:10;" d="M 0.610508 0.623008 L 0.389492 0.623008 " transform="matrix(200,0,0,200,0,0)"/>
<path style="fill:none;stroke-width:0.03;stroke-linecap:round;stroke-linejoin:miter;stroke:rgb(0%,0%,0%);stroke-opacity:1;stroke-miterlimit:10;" d="M 0.610996 0.624004 L 0.389004 0.624004 " transform="matrix(200,0,0,200,0,0)"/>
<path style="fill:none;stroke-width:0.03;stroke-linecap:round;stroke-linejoin:miter;stroke:rgb(0%,0%,0%);stroke-opacity:1;stroke-miterlimit:10;" d="M 0.611504 0.625 L 0.388496 0.625 " transform="matrix(200,0,0,200,0,0)"/>
<path style="fill:none;stroke-width:0.03;stroke-linecap:round;stroke-linejoin:miter;stroke:rgb(0%,0%,0%);stroke-opacity:1;stroke-miterlimit:10;" d="M 0.611992 0.625996 L 0.388008 0.625996 " transform="matrix(200,0,0,200,0,0)"/>
<path style="fill:none;stroke-width:0.03;stroke-linecap:round;stroke-linejoin:miter;stroke:rgb(0%,0%,0%);stroke-opacity:1;stroke-miterlimit:10;" d="M 0.6125 0.626992 L 0.3875 0.626992 " transform="matrix(200,0,0,200,0,0)"/>
<path style="fill:none;stroke-width:0.03;stroke-linecap:round;stroke-linejoin:miter;stroke:rgb(0%,0%,0%);stroke-opacity:1;stroke-miterlimit:10;" d="M 0.613008 0.628008 L 0.386992 0.628008 " transform="matrix(200,0,0,200,0,0)"/>
<path style="fill:none;stroke-width:0.03;stroke-linecap:round;stroke-linejoin:miter;stroke:rgb(0%,0%,0%);stroke-opacity:1;stroke-miterlimit:10;" d="M 0.613496 0.629004 L 0.386504 0.629004 " transform="matrix(200,0,0,200,0,0)"/>
<path style="fill:none;stroke-width:0.03;stroke-linecap:round;stroke-linejoin:miter;stroke:rgb(0%,0%,0%);stroke-opacity:1;stroke-miterlimit:10;" d="M 0.614004 0.63 L 0.385996 0.63 " transform="matrix(200,0,0,200,0,0)"/>
<path style="fill:none;stroke-width:0.03;stroke-linecap:round;stroke-linejoin:miter;stroke:rgb(0%,0%,0%);stroke-opacity:1;stroke-miterlimit:10;" d="M 0.614492 0.630996 L 0.385508 0.630996 " transform="matrix(200,0,0,200,0,0)"/>
<path style="fill:none;stroke-width:0.03;stroke-linecap:round;stroke-linejoin:miter;stroke:rgb(0%,0%,0%);stroke-opacity:1;stroke-miterlimit:10;" d="M 0.615 0.631992 L 0.385 0.631992 " transform="matrix(200,0,0,200,0,0)"/>
<path style="fill:none;stroke-width:0.03;stroke-linecap:round;stroke-linejoin:miter;stroke:rgb(0%,0%,0%);stroke-opacity:1;stroke-miterlimit:10;" d="M 0.615508 0.633008 L 0.384492 0.633008 " transform="matrix(200,0,0,200,0,0)"/>
<path style="fill:none;stroke-width:0.03;stroke-linecap:round;stroke-linejoin:miter;stroke:rgb(0%,0%,0%);stroke-opacity:1;stroke-miterlimit:10;" d="M 0.615996 0.634004 L 0.384004 0.634004 " transform="matrix(200,0,0,200,0,0)"/>
<path style="fill:none;stroke-width:0.03;stroke-linecap:round;stroke-linejoin:miter;stroke:rgb(0%,0%,0%);stroke-opacity:1;stroke-miterlimit:10;" d="M 0.616504 0.635 L 0.383496 0.635 " transform="matrix(200,0,0,200,0,0)"/>
<path style="fill:none;stroke-width:0.03;stroke-linecap:round;stroke-linejoin:miter;stroke:rgb(0%,0%,0%);stroke-opacity:1;stroke-miterlimit:10;" d="M 0.616992 0.635996 L 0.383008 0.635996 " transform="matrix(200,0,0,200,0,0)"/>
<path style="fill:none;stroke-width:0.03;stroke-linecap:round;stroke-linejoin:miter;stroke:rgb(0%,0%,0%);stroke-opacity:1;stroke-miterlimit:10;" d="M 0.6175 0.636992 L 0.3825 0.636992 " transform="matrix(200,0,0,200,0,0)"/>
<path style="fill:none;stroke-width:0.03;stroke-linecap:round;stroke-linejoin:miter;stroke:rgb(0%,0%,0%);stroke-opacity:1;stroke-miterlimit:10;" d="M 0.618008 0.638008 L 0.381992 0.638008 " transform="matrix(200,0,0,200,0,0)"/>
<path style="fill:none;stroke-width:0.03;stroke-linecap:round;stroke-linejoin:miter;stroke:rgb(0%,0%,0%);stroke-opacity:1;stroke-miterlimit:10;" d="M 0.618496 0.639004 L 0.381504 0.639004 " transform="matrix(200,0,0,200,0,0)"/>
<path style="fill:none;stroke-width:0.03;stroke-linecap:round;stroke-linejoin:miter;stroke:rgb(0%,0%,0%);stroke-opacity:1;stroke-miterlimit:10;" d="M 0.619004 0.64 L 0.380996 0.64 " transform="matrix(200,0,0,200,0,0)"/>
<path style="fill:none;stroke-width:0.03;stroke-linecap:round;stroke-linejoin:miter;stroke:rgb(0%,0%,0%);stroke-opacity:1;stroke-miterlimit:10;" d="M 0.619492 0.640996 L 0.380508 0.640996 " transform="matrix(200,0,0,200,0,0)"/>
<path style="fill:none;stroke-width:0.03;stroke-linecap:round;stroke-linejoin:miter;stroke:rgb(0%,0%,0%);stroke-opacity:1;stroke-miterlimit:10;" d="M 0.62 0.641992 L 0.38 0.641992 " transform="matrix(200,0,0,200,0,0)"/>
<path style="fill:none;stroke-width:0.03;stroke-linecap:round;stroke-linejoin:miter;stroke:rgb(0%,0%,0%);stroke-opacity:1;stroke-miterlimit:10;" d="M 0.620508 0.643008 L 0.379492 0.643008 " transform="matrix(200,0,0,200,0,0)"/>
<path style="fill:none;stroke-width:0.03;stroke-linecap:round;stroke-linejoin:miter;stroke:rgb(0%,0%,0%);stroke-opacity:1;stroke-miterlimit:10;" d="M 0.620996 0.644004 L 0.379004 0.644004 " transform="matrix(200,0,0,200,0,0)"/>
<path style="fill:none;stroke-width:0.03;stroke-linecap:round;stroke-linejoin:miter;stroke:rgb(0%,0%,0%);stroke-opacity:1;stroke-miterlimit:10;" d="M 0.621504 0.645 L 0.378496 0.645 " transform="matrix(200,0,0,200,0,0)"/>
<path style="fill:none;stroke-width:0.03;stroke-linecap:round;stroke-linejoin:miter;stroke:rgb(0%,0%,0%);stroke-opacity:1;stroke-miterlimit:10;" d="M 0.621992 0.645996 L 0.378008 0.645996 " transform="matrix(200,0,0,200,0,0)"/>
<path style="fill:none;stroke-width:0.03;stroke-linecap:round;stroke-linejoin:miter;stroke:rgb(0%,0%,0%);stroke-opacity:1;stroke-miterlimit:10;" d="M 0.6225 0.646992 L 0.3775 0.646992 " transform="matrix(200,0,0,200,0,0)"/>
<path style="fill:none;stroke-width:0.03;stroke-linecap:round;stroke-linejoin:miter;stroke:rgb(0%,0%,0%);stroke-opacity:1;stroke-miterlimit:10;" d="M 0.623008 0.648008 L 0.376992 0.648008 " transform="matrix(200,0,0,200,0,0)"/>
<path style="fill:none;stroke-width:0.03;stroke-linecap:round;stroke-linejoin:miter;stroke:rgb(0%,0%,0%);stroke-opacity:1;stroke-miterlimit:10;" d="M 0.623496 0.649004 L 0.376504 0.649004 " transform="matrix(200,0,0,200,0,0)"/>
<path style="fill:none;stroke-width:0.03;stroke-linecap:round;stroke-linejoin:miter;stroke:rgb(0%,0%,0%);stroke-opacity:1;stroke-miterlimit:10;" d="M 0.624004 0.65 L 0.375996 0.65 " transform="matrix(200,0,0,200,0,0)"/>
<path style="fill:none;stroke-width:0.03;stroke-linecap:round;stroke-linejoin:miter;stroke:rgb(0%,0%,0%);stroke-opacity:1;stroke-miterlimit:10;" d="M 0.624492 0.650996 L 0.375508 0.650996 " transform="matrix(200,0,0,200,0,0)"/>
<path style="fill:none;stroke-width:0.03;stroke-linecap:round;stroke-linejoin:miter;stroke:rgb(0%,0%,0%);stroke-opacity:1;stroke-miterlimit:10;" d="M 0.625 0.651992 L 0.375 0.651992 " transform="matrix(200,0,0,200,0,0)"/>
<path style="fill:none;stroke-width:0.03;stroke-linecap:round;stroke-linejoin:miter;stroke:rgb(0%,0%,0%);stroke-opacity:1;stroke-miterlimit:10;" d="M 0.625508 0.653008 L 0.374492 0.653008 " transform="matrix(200,0,0,200,0,0)"/>
<path style="fill:none;stroke-width:0.03;stroke-linecap:round;stroke-linejoin:miter;stroke:rgb(0%,0%,0%);stroke-opacity:1;stroke-miterlimit:10;" d="M 0.625996 0.654004 L 0.374004 0.654004 " transform="matrix(200,0,0,200,0,0)"/>
<path style="fill:none;stroke-width:0.03;stroke-linecap:round;stroke-linejoin:miter;stroke:rgb(0%,0%,0%);stroke-opacity:1;stroke-miterlimit:10;" d="M 0.626504 0.655 L 0.373496 0.655 " transform="matrix(200,0,0,200,0,0)"/>
<path style="fill:none;stroke-width:0.03;stroke-linecap:round;stroke-linejoin:miter;stroke:rgb(0%,0%,0%);stroke-opacity:1;stroke-miterlimit:10;" d="M 0.626992 0.655996 L 0.373008 0.655996 " transform="matrix(200,0,0,200,0,0)"/>
<path style="fill:none;stroke-width:0.03;stroke-linecap:round;stroke-linejoin:miter;stroke:rgb(0%,0%,0%);stroke-opacity:1;stroke-miterlimit:10;" d="M 0.6275 0.656992 L 0.3725 0.656992 " transform="matrix(200,0,0,200,0,0)"/>
<path style="fill:none;stroke-width:0.03;stroke-linecap:round;stroke-linejoin:miter;stroke:rgb(0%,0%,0%);stroke-opacity:1;stroke-miterlimit:10;" d="M 0.628008 0.658008 L 0.371992 0.658008 " transform="matrix(200,0,0,200,0,0)"/>
<path style="fill:none;stroke-width:0.03;stroke-linecap:round;stroke-linejoin:miter;stroke:rgb(0%,0%,0%);stroke-opacity:1;stroke-miterlimit:10;" d="M 0.628496 0.659004 L 0.371504 0.659004 " transform="matrix(200,0,0,200,0,0)"/>
<path style="fill:none;stroke-width:0.03;stroke-linecap:round;stroke-linejoin:miter;stroke:rgb(0%,0%,0%);stroke-opacity:1;stroke-miterlimit:10;" d="M 0.629004 0.66 L 0.370996 0.66 " transform="matrix(200,0,0,200,0,0)"/>
<path style="fill:none;stroke-width:0.03;stroke-linecap:round;stroke-linejoin:miter;stroke:rgb(0%,0%,0%);stroke-opacity:1;stroke-miterlimit:10;" d="M 0.629492 0.660996 L 0.370508 0.660996 " transform="matrix(200,0,0,200,0,0)"/>
<path style="fill:none;stroke-width:0.03;stroke-linecap:round;stroke-linejoin:miter;stroke:rgb(0%,0%,0%);stroke-opacity:1;stroke-miterlimit:10;" d="M 0.63 0.661992 L 0.37 0.661992 " transform="matrix(200,0,0,200,0,0)"/>
<path style="fill:none;stroke-width:0.03;stroke-linecap:round;stroke-linejoin:miter;stroke:rgb(0%,0%,0%);stroke-opacity:1;stroke-miterlimit:10;" d="M 0.630508 0.663008 L 0.369492 0.663008 " transform="matrix(200,0,0,200,0,0)"/>
<path style="fill:none;stroke-width:0.03;stroke-linecap:round;stroke-linejoin:miter;stroke:rgb(0%,0%,0%);stroke-opacity:1;stroke-miterlimit:10;" d="M 0.630996 0.664004 L 0.369004 0.664004 " transform="matrix(200,0,0,200,0,0)"/>
<path style="fill:none;stroke-width:0.03;stroke-linecap:round;stroke-linejoin:miter;stroke:rgb(0%,0%,0%);stroke-opacity:1;stroke-miterlimit:10;" d="M 0.631504 0.665 L 0.368496 0.665 " transform="matrix(200,0,0,200,0,0)"/>
<path style="fill:none;stroke-width:0.03;stroke-linecap:round;stroke-linejoin:miter;stroke:rgb(0%,0%,0%);stroke-opacity:1;stroke-miterlimit:10;" d="M 0.631992 0.665996 L 0.368008 0.665996 " transform="matrix(200,0,0,200,0,0)"/>
<path style="fill:none;stroke-width:0.03;stroke-linecap:round;stroke-linejoin:miter;stroke:rgb(0%,0%,0%);stroke-opacity:1;stroke-miterlimit:10;" d="M 0.6325 0.666992 L 0.3675 0.666992 " transform="matrix(200,0,0,200,0,0)"/>
<path style="fill:none;stroke-width:0.03;stroke-linecap:round;stroke-linejoin:miter;stroke:rgb(0%,0%,0%);stroke-opacity:1;stroke-miterlimit:10;" d="M 0.633008 0.668008 L 0.366992 0.668008 " transform="matrix(200,0,0,200,0,0)"/>
<path style="fill:none;stroke-width:0.03;stroke-linecap:round;stroke-linejoin:miter;stroke:rgb(0%,0%,0%);stroke-opacity:1;stroke-miterlimit:10;" d="M 0.633496 0.669004 L 0.366504 0.669004 " transform="matrix(200,0,0,200,0,0)"/>
<path style="fill:none;stroke-width:0.03;stroke-linecap:round;stroke-linejoin:miter;stroke:rgb(0%,0%,0%);stroke-opacity:1;stroke-miterlimit:10;" d="M 0.634004 0.67 L 0.365996 0.67 " transform="matrix(200,0,0,200,0,0)"/>
<path style="fill:none;stroke-width:0.03;stroke-linecap:round;stroke-linejoin:miter;stroke:rgb(0%,0%,0%);stroke-opacity:1;stroke-miterlimit:10;" d="M 0.634492 0.670996 L 0.365508 0.670996 " transform="matrix(200,0,0,200,0,0)"/>
<path style="fill:none;stroke-width:0.03;stroke-linecap:round;stroke-linejoin:miter;stroke:rgb(0%,0%,0%);stroke-opacity:1;stroke-miterlimit:10;" d="M 0.635 0.671992 L 0.365 0.671992 " transform="matrix(200,0,0,200,0,0)"/>
<path style="fill:none;stroke-width:0.03;stroke-linecap:round;stroke-linejoin:miter;stroke:rgb(0%,0%,0%);stroke-opacity:1;stroke-miterlimit:10;" d="M 0.635508 0.673008 L 0.364492 0.673008 " transform="matrix(200,0,0,200,0,0)"/>
<path style="fill:none;stroke-width:0.03;stroke-linecap:round;stroke-linejoin:miter;stroke:rgb(0%,0%,0%);stroke-opacity:1;stroke-miterlimit:10;" d="M 0.635996 0.674004 L 0.364004 0.674004 " transform="matrix(200,0,0,200,0,0)"/>
<path style="fill:none;stroke-width:0.03;stroke-linecap:round;stroke-linejoin:miter;stroke:rgb(0%,0%,0%);stroke-opacity:1;stroke-miterlimit:10;" d="M 0.636504 0.675 L 0.363496 0.675 " transform="matrix(200,0,0,200,0,0)"/>
<path style="fill:none;stroke-width:0.03;stroke-linecap:round;stroke-linejoin:miter;stroke:rgb(0%,0%,0%);stroke-opacity:1;stroke-miterlimit:10;" d="M 0.636992 0.675996 L 0.363008 0.675996 " transform="matrix(200,0,0,200,0,0)"/>
<path style="fill:none;stroke-width:0.03;stroke-linecap:round;stroke-linejoin:miter;stroke:rgb(0%,0%,0%);stroke-opacity:1;stroke-miterlimit:10;" d="M 0.6375 0.676992 L 0.3625 0.676992 " transform="matrix(200,0,0,200,0,0)"/>
<path style="fill:none;stroke-width:0.03;stroke-linecap:round;stroke-linejoin:miter;stroke:rgb(0%,0%,0%);stroke-opacity:1;stroke-miterlimit:10;" d="M 0.638008 0.678008 L 0.361992 0.678008 " transform="matrix(200,0,0,200,0,0)"/>
<path style="fill:none;stroke-width:0.03;stroke-linecap:round;stroke-linejoin:miter;stroke:rgb(0%,0%,0%);stroke-opacity:1;stroke-miterlimit:10;" d="M 0.638496 0.679004 L 0.361504 0.679004 " transform="matrix(200,0,0,200,0,0)"/>
<path style="fill:none;stroke-width:0.03;stroke-linecap:round;stroke-linejoin:miter;stroke:rgb(0%,0%,0%);stroke-opacity:1;stroke-miterlimit:10;" d="M 0.639004 0.68 L 0.360996 0.68 " transform="matrix(200,0,0,200,0,0)"/>
<path style="fill:none;stroke-width:0.03;stroke-linecap:round;stroke-linejoin:miter;stroke:rgb(0%,0%,0%);stroke-opacity:1;stroke-miterlimit:10;" d="M 0.639492 0.680996 L 0.360508 0.680996 " transform="matrix(200,0,0,200,0,0)"/>
<path style="fill:none;stroke-width:0.03;stroke-linecap:round;stroke-linejoin:miter;stroke:rgb(0%,0%,0%);stroke-opacity:1;stroke-miterlimit:10;" d="M 0.64 0.681992 L 0.36 0.681992 " transform="matrix(200,0,0,200,0,0)"/>
<path style="fill:none;stroke-width:0.03;stroke-linecap:round;stroke-linejoin:miter;stroke:rgb(0%,0%,0%);stroke-opacity:1;stroke-miterlimit:10;" d="M 0.640508 0.683008 L 0.359492 0.683008 " transform="matrix(200,0,0,200,0,0)"/>
<path style="fill:none;stroke-width:0.03;stroke-linecap:round;stroke-linejoin:miter;stroke:rgb(0%,0%,0%);stroke-opacity:1;stroke-miterlimit:10;" d="M 0.640996 0.684004 L 0.359004 0.684004 " transform="matrix(200,0,0,200,0,0)"/>
<path style="fill:none;stroke-width:0.03;stroke-linecap:round;stroke-linejoin:miter;stroke:rgb(0%,0%,0%);stroke-opacity:1;stroke-miterlimit:10;" d="M 0.641504 0.685 L 0.358496 0.685 " transform="matrix(200,0,0,200,0,0)"/>
<path style="fill:none;stroke-width:0.03;stroke-linecap:round;stroke-linejoin:miter;stroke:rgb(0%,0%,0%);stroke-opacity:1;stroke-miterlimit:10;" d="M 0.641992 0.685996 L 0.358008 0.685996 " transform="matrix(200,0,0,200,0,0)"/>
<path style="fill:none;stroke-width:0.03;stroke-linecap:round;stroke-linejoin:miter;stroke:rgb(0%,0%,0%);stroke-opacity:1;stroke-miterlimit:10;" d="M 0.6425 0.686992 L 0.3575 0.686992 " transform="matrix(200,0,0,200,0,0)"/>
<path style="fill:none;stroke-width:0.03;stroke-linecap:round;stroke-linejoin:miter;stroke:rgb(0%,0%,0%);stroke-opacity:1;stroke-miterlimit:10;" d="M 0.643008 0.688008 L 0.356992 0.688008 " transform="matrix(200,0,0,200,0,0)"/>
<path style="fill:none;stroke-width:0.03;stroke-linecap:round;stroke-linejoin:miter;stroke:rgb(0%,0%,0%);stroke-opacity:1;stroke-miterlimit:10;" d="M 0.643496 0.689004 L 0.356504 0.689004 " transform="matrix(200,0,0,200,0,0)"/>
<path style="fill:none;stroke-width:0.03;stroke-linecap:round;stroke-linejoin:miter;stroke:rgb(0%,0%,0%);stroke-opacity:1;stroke-miterlimit:10;" d="M 0.644004 0.69 L 0.355996 0.69 " transform="matrix(200,0,0,200,0,0)"/>
<path style="fill:none;stroke-width:0.03;stroke-linecap:round;stroke-linejoin:miter;stroke:rgb(0%,0%,0%);stroke-opacity:1;stroke-miterlimit:10;" d="M 0.644492 0.690996 L 0.355508 0.690996 " transform="matrix(200,0,0,200,0,0)"/>
<path style="fill:none;stroke-width:0.03;stroke-linecap:round;stroke-linejoin:miter;stroke:rgb(0%,0%,0%);stroke-opacity:1;stroke-miterlimit:10;" d="M 0.645 0.691992 L 0.355 0.691992 " transform="matrix(200,0,0,200,0,0)"/>
<path style="fill:none;stroke-width:0.03;stroke-linecap:round;stroke-linejoin:miter;stroke:rgb(0%,0%,0%);stroke-opacity:1;stroke-miterlimit:10;" d="M 0.645508 0.693008 L 0.354492 0.693008 " transform="matrix(200,0,0,200,0,0)"/>
<path style="fill:none;stroke-width:0.03;stroke-linecap:round;stroke-linejoin:miter;stroke:rgb(0%,0%,0%);stroke-opacity:1;stroke-miterlimit:10;" d="M 0.645996 0.694004 L 0.354004 0.694004 " transform="matrix(200,0,0,200,0,0)"/>
<path style="fill:none;stroke-width:0.03;stroke-linecap:round;stroke-linejoin:miter;stroke:rgb(0%,0%,0%);stroke-opacity:1;stroke-miterlimit:10;" d="M 0.646504 0.695 L 0.353496 0.695 " transform="matrix(200,0,0,200,0,0)"/>
<path style="fill:none;stroke-width:0.03;stroke-linecap:round;stroke-linejoin:miter;stroke:rgb(0%,0%,0%);stroke-opacity:1;stroke-miterlimit:10;" d="M 0.646992 0.695996 L 0.353008 0.695996 " transform="matrix(200,0,0,200,0,0)"/>
<path style="fill:none;stroke-width:0.03;stroke-linecap:round;stroke-linejoin:miter;stroke:rgb(0%,0%,0%);stroke-opacity:1;stroke-miterlimit:10;" d="M 0.6475 0.696992 L 0.3525 0.696992 " transform="matrix(200,0,0,200,0,0)"/>
<path style="fill:none;stroke-width:0.03;stroke-linecap:round;stroke-linejoin:miter;stroke:rgb(0%,0%,0%);stroke-opacity:1;stroke-miterlimit:10;" d="M 0.648008 0.698008 L 0.351992 0.698008 " transform="matrix(200,0,0,200,0,0)"/>
<path style="fill:none;stroke-width:0.03;stroke-linecap:round;stroke-linejoin:miter;stroke:rgb(0%,0%,0%);stroke-opacity:1;stroke-miterlimit:10;" d="M 0.648496 0.699004 L 0.351504 0.699004 " transform="matrix(200,0,0,200,0,0)"/>
<path style="fill:none;stroke-width:0.03;stroke-linecap:round;stroke-linejoin:miter;stroke:rgb(0%,0%,0%);stroke-opacity:1;stroke-miterlimit:10;" d="M 0.649004 0.7 L 0.350996 0.7 " transform="matrix(200,0,0,200,0,0)"/>
<path style="fill:none;stroke-width:0.03;stroke-linecap:round;stroke-linejoin:miter;stroke:rgb(0%,0%,0%);stroke-opacity:1;stroke-miterlimit:10;" d="M 0.649492 0.700996 L 0.350508 0.700996 " transform="matrix(200,0,0,200,0,0)"/>
<path style="fill:none;stroke-width:0.03;stroke-linecap:round;stroke-linejoin:miter;stroke:rgb(0%,0%,0%);stroke-opacity:1;stroke-miterlimit:10;" d="M 0.675 0.750996 L 0.325 0.750996 " transform="matrix(200,0,0,200,0,0)"/>
<path style="fill:none;stroke-width:0.03;stroke-linecap:round;stroke-linejoin:miter;stroke:rgb(0%,0%,0%);stroke-opacity:1;stroke-miterlimit:10;" d="M 0.7 0.8 L 0.3 0.8 " transform="matrix(200,0,0,200,0,0)"/>
</g>
</svg>
